<svg width="20" height="20" viewBox="0 0 20 20" fill="none" xmlns="http://www.w3.org/2000/svg">
<path d="M12.9933 12.5865C13.3863 12.7175 13.811 12.5051 13.942 12.1122C14.073 11.7192 13.8606 11.2945 13.4676 11.1635L13.2305 11.875L12.9933 12.5865ZM10.418 10.9375H9.66797C9.66797 11.2603 9.87454 11.5469 10.1808 11.649L10.418 10.9375ZM11.168 7.01739C11.168 6.60318 10.8322 6.26739 10.418 6.26739C10.0038 6.26739 9.66797 6.60318 9.66797 7.01739H10.418H11.168ZM13.2305 11.875L13.4676 11.1635L10.6551 10.226L10.418 10.9375L10.1808 11.649L12.9933 12.5865L13.2305 11.875ZM10.418 10.9375H11.168V7.01739H10.418H9.66797V10.9375H10.418ZM17.918 10H17.168C17.168 13.7279 14.1459 16.75 10.418 16.75V17.5V18.25C14.9743 18.25 18.668 14.5563 18.668 10H17.918ZM10.418 17.5V16.75C6.69005 16.75 3.66797 13.7279 3.66797 10H2.91797H2.16797C2.16797 14.5563 5.86162 18.25 10.418 18.25V17.5ZM2.91797 10H3.66797C3.66797 6.27208 6.69005 3.25 10.418 3.25V2.5V1.75C5.86162 1.75 2.16797 5.44365 2.16797 10H2.91797ZM10.418 2.5V3.25C14.1459 3.25 17.168 6.27208 17.168 10H17.918H18.668C18.668 5.44365 14.9743 1.75 10.418 1.75V2.5Z" fill="#495057"/>
</svg>
